<?xml version="1.0" encoding="UTF-8"?>
<svg width="139px" height="149px" viewBox="0 0 139 149" version="1.1" xmlns="http://www.w3.org/2000/svg">
    <title>Group</title>
    <g id="Page-1" stroke="none" stroke-width="1" fill="none" fill-rule="evenodd">
        <g id="Group" transform="translate(0.4531, 0.0195)" fill="#FFFFFF">
            <path d="M100.101562,134.996094 L134.261719,134.996094 C136.996094,134.996094 138.363281,133.84375 138.363281,131.539062 C138.363281,129.273438 136.996094,128.140625 134.261719,128.140625 L121.136719,128.140625 L121.136719,19.8007812 L134.261719,19.8007812 C136.996094,19.8007812 138.363281,18.6484375 138.363281,16.34375 C138.363281,14.1171875 136.996094,13.0039062 134.261719,13.0039062 L100.101562,13.0039062 C97.3671875,13.0039062 96,14.1171875 96,16.34375 C96,18.6484375 97.3671875,19.8007812 100.101562,19.8007812 L113.226563,19.8007812 L113.226563,128.140625 L100.101562,128.140625 C97.3671875,128.140625 96,129.273438 96,131.539062 C96,133.84375 97.3671875,134.996094 100.101562,134.996094 Z" id="Cursor" fill-rule="nonzero"/>
            <path d="M15.02,118.61 C18.22,118.61 19.86,116.67 19.86,112.79 L19.86,57.33 L20.34,57.33 L40.87,105.29 C42.93,110.19 44.87,111.82 48.01,111.82 C51.22,111.82 53.10,110.19 55.22,105.29 L75.68,57.33 L76.17,57.33 L76.17,112.79 C76.17,116.67 77.80,118.61 80.95,118.61 C84.16,118.61 85.79,116.67 85.79,112.79 L85.79,41.41 C85.79,37.05 83.68,34.57 80.04,34.57 C76.71,34.57 75.26,35.90 73.02,41.35 L48.20,100.26 L47.83,100.26 L23.01,41.35 C20.77,35.90 19.25,34.57 15.98,34.57 C12.41,34.57 10.23,37.05 10.23,41.41 L10.23,112.79 C10.23,116.67 11.81,118.61 15.02,118.61 Z" id="M" fill-rule="nonzero"/>
        </g>
    </g>
</svg>
